<svg width="139" height="139" viewBox="0 0 139 139" fill="none" xmlns="http://www.w3.org/2000/svg">
<circle cx="69.5" cy="69.5" r="69.5" fill="url(#paint0_linear_4146_127)"/>
<path d="M72.3057 36.0801C73.3636 38.6191 73.8926 41.4121 73.8926 44.459C73.8926 47.4635 73.7868 49.9603 73.5752 51.9492C73.3636 53.9382 73.0462 55.8636 72.623 57.7256C71.7344 61.6611 70.359 64.8138 68.4971 67.1836C66.6351 55.6732 63.6094 48.6908 59.4199 46.2363C57.9388 45.39 56.3307 44.9668 54.5957 44.9668C52.903 44.9668 51.4219 45.3688 50.1523 46.1729C48.8828 46.9769 47.8037 48.1406 46.915 49.6641C45.0954 52.7109 44.1855 56.6676 44.1855 61.5342C44.1855 66.3584 44.6722 70.5267 45.6455 74.0391C46.6188 77.5091 47.8883 80.6406 49.4541 83.4336C51.0622 86.1842 52.8607 88.5752 54.8496 90.6064C56.8809 92.5954 58.9121 94.2669 60.9434 95.6211C65.0482 98.2448 68.6875 99.5566 71.8613 99.5566C71.6921 100.657 71.1419 101.736 70.2109 102.794C69.2799 103.852 68.2643 104.677 67.1641 105.27C62.6784 105.27 57.5368 103.746 51.7393 100.699C40.9482 94.9863 33.6696 86.6497 29.9033 75.6895C28.5068 71.6693 27.8086 67.5645 27.8086 63.375C27.8086 59.1432 28.2952 55.5885 29.2686 52.7109C30.2419 49.791 31.6595 47.2943 33.5215 45.2207C37.3301 40.8197 42.6198 38.6191 49.3906 38.6191C51.6758 38.6191 53.8975 38.7673 56.0557 39.0635C60.1182 39.6136 62.9535 39.8887 64.5615 39.8887C66.2119 39.8887 67.6719 39.6771 68.9414 39.2539C70.2109 38.7884 71.3324 37.7305 72.3057 36.0801Z" fill="white"/>
<path d="M79.8008 76.5742C79.8008 73.6914 80.7617 71.2422 82.6836 69.2266C84.6289 67.1875 86.9375 66.168 89.6094 66.168C92.3047 66.168 94.6016 67.1875 96.5 69.2266C98.4219 71.2656 99.3828 73.7148 99.3828 76.5742C99.3828 79.4102 98.4219 81.8594 96.5 83.9219C94.6016 85.9844 92.3047 87.0156 89.6094 87.0156C86.9141 87.0156 84.6055 85.9961 82.6836 83.957C80.7617 81.8945 79.8008 79.4336 79.8008 76.5742Z" fill="white"/>
<defs>
<linearGradient id="paint0_linear_4146_127" x1="69.5" y1="0" x2="69.5" y2="139" gradientUnits="userSpaceOnUse">
<stop stop-color="#0891B2"/>
<stop offset="1" stop-color="#153951"/>
</linearGradient>
</defs>
</svg>
