<svg width="1200" height="630" viewBox="0 0 1200 630" fill="none" xmlns="http://www.w3.org/2000/svg">
  <!-- Background gradient (same as hero) -->
  <defs>
    <linearGradient id="bg-gradient" x1="0" y1="0" x2="0" y2="630" gradientUnits="userSpaceOnUse">
      <stop offset="0%" stop-color="#FFFFFF"/>
      <stop offset="100%" stop-color="#F0FDFF"/>
    </linearGradient>
    <linearGradient id="logo-gradient-1" x1="28" y1="10" x2="28" y2="53" gradientUnits="userSpaceOnUse">
      <stop stop-color="#153951"/>
      <stop offset="1" stop-color="#0A8AAA"/>
    </linearGradient>
    <linearGradient id="logo-gradient-2" x1="66" y1="0" x2="66" y2="90" gradientUnits="userSpaceOnUse">
      <stop stop-color="#153951"/>
      <stop offset="1" stop-color="#0A8AAA"/>
    </linearGradient>
  </defs>

  <rect width="1200" height="630" fill="url(#bg-gradient)"/>

  <!-- Logo (scaled up 1.5x and positioned) -->
  <g transform="translate(100, 140) scale(1.5)">
    <path d="M48.3057 10.0801C49.3636 12.6191 49.8926 15.4121 49.8926 18.459C49.8926 21.4635 49.7868 23.9603 49.5752 25.9492C49.3636 27.9382 49.0462 29.8636 48.623 31.7256C47.7344 35.6611 46.359 38.8138 44.4971 41.1836C42.6351 29.6732 39.6094 22.6908 35.4199 20.2363C33.9388 19.39 32.3307 18.9668 30.5957 18.9668C28.903 18.9668 27.4219 19.3688 26.1523 20.1729C24.8828 20.9769 23.8037 22.1406 22.915 23.6641C21.0954 26.7109 20.1855 30.6676 20.1855 35.5342C20.1855 40.3584 20.6722 44.5267 21.6455 48.0391C22.6188 51.5091 23.8883 54.6406 25.4541 57.4336C27.0622 60.1842 28.8607 62.5752 30.8496 64.6064C32.8809 66.5954 34.9121 68.2669 36.9434 69.6211C41.0482 72.2448 44.6875 73.5566 47.8613 73.5566C47.6921 74.6569 47.1419 75.736 46.2109 76.7939C45.2799 77.8519 44.2643 78.6771 43.1641 79.2695C38.6784 79.2695 33.5368 77.7461 27.7393 74.6992C16.9482 68.9863 9.6696 60.6497 5.90332 49.6895C4.50684 45.6693 3.80859 41.5645 3.80859 37.375C3.80859 33.1432 4.29525 29.5885 5.26855 26.7109C6.24186 23.791 7.65951 21.2943 9.52148 19.2207C13.3301 14.8197 18.6198 12.6191 25.3906 12.6191C27.6758 12.6191 29.8975 12.7673 32.0557 13.0635C36.1182 13.6136 38.9535 13.8887 40.5615 13.8887C42.2119 13.8887 43.6719 13.6771 44.9414 13.2539C46.2109 12.7884 47.3324 11.7305 48.3057 10.0801Z" fill="url(#logo-gradient-1)"/>
    <path d="M55.8008 50.5742C55.8008 47.6914 56.7617 45.2422 58.6836 43.2266C60.6289 41.1875 62.9375 40.168 65.6094 40.168C68.3047 40.168 70.6016 41.1875 72.5 43.2266C74.4219 45.2656 75.3828 47.7148 75.3828 50.5742C75.3828 53.4102 74.4219 55.8594 72.5 57.9219C70.6016 59.9844 68.3047 61.0156 65.6094 61.0156C62.9141 61.0156 60.6055 59.9961 58.6836 57.957C56.7617 55.8945 55.8008 53.4336 55.8008 50.5742Z" fill="url(#logo-gradient-2)"/>
  </g>

  <!-- Main heading -->
  <text x="250" y="280" font-family="Playfair Display, Georgia, serif" font-size="64" font-weight="700" fill="#000000">
    Cris - UX Designer
  </text>

  <!-- Subheading -->
  <text x="250" y="350" font-family="Inter, sans-serif" font-size="32" font-weight="400" fill="#666666">
    Bridging UX Design &amp; AI Development
  </text>

  <!-- Location -->
  <text x="250" y="420" font-family="Inter, sans-serif" font-size="28" font-weight="500" fill="#0891B2">
    Based in Zürich
  </text>

  <!-- Subtle decorative line -->
  <line x1="250" y1="450" x2="450" y2="450" stroke="#E8E8E8" stroke-width="2"/>
</svg>
